# xmcd
#
# Track frame offsets:
#	150
#	46073
#	95931
#	115502
#	141407
#	184344
#	237313
#	281153
#
# Disc length: 4428 seconds
#
# Revision: 0
# Processed by: cddbd v1.5.2PL0 Copyright (c) Steve Scherf et al.
# Submitted via: dBpowerAMP V4.0
#
DISCID=76114a08
DTITLE=The Kelly Richy Band - Live at The Thirsty Ear
DYEAR=2006
DGENRE=Blues
TTITLE0=Tears Like Rain
TTITLE1=Red House
TTITLE2=I Don't Feel So Good
TTITLE3=The Longest Road
TTITLE4=Nobody's Fault
TTITLE5=Hey Joe
TTITLE6=Is There Any Reason
TTITLE7=Crossroads
EXTD=
EXTT0=
EXTT1=
EXTT2=
EXTT3=
EXTT4=
EXTT5=
EXTT6=
EXTT7=
PLAYORDER=
